<?xml version="1.0" standalone="no"?>
<!DOCTYPE svg PUBLIC "-//W3C//DTD SVG 20010904//EN"
 "http://www.w3.org/TR/2001/REC-SVG-20010904/DTD/svg10.dtd">
<svg version="1.0" xmlns="http://www.w3.org/2000/svg"
 width="989.000000pt" height="1280.000000pt" viewBox="0 0 989.000000 1280.000000"
 preserveAspectRatio="xMidYMid meet">
<g transform="translate(0.000000,1280.000000) scale(0.100000,-0.100000)"
fill="#000000" stroke="none">
<path d="M2900 12510 l0 -290 -285 0 -285 0 0 -2600 0 -2600 -290 0 -290 0 0
275 0 275 -875 0 -875 0 0 -875 0 -875 290 0 290 0 0 -295 0 -295 290 0 290 0
0 -580 0 -580 290 0 290 0 0 -580 0 -580 293 -2 292 -3 3 -582 2 -583 290 0
290 0 0 -870 0 -870 2910 0 2910 0 0 870 0 870 290 0 290 0 0 900 0 900 290 0
290 0 0 2015 0 2015 -290 0 -290 0 0 290 0 290 -290 0 -290 0 0 290 0 290
-580 0 -580 0 0 290 0 290 -875 0 -875 0 0 290 0 290 -580 0 -580 0 0 1165 0
1165 -290 0 -290 0 0 290 0 290 -590 0 -590 0 0 -290z"/>
</g>
</svg>
